<?xml version="1.0" encoding="UTF-8" standalone="no" ?>
<!DOCTYPE svg PUBLIC "-//W3C//DTD SVG 1.1//EN" "http://www.w3.org/Graphics/SVG/1.1/DTD/svg11.dtd">
<svg xmlns="http://www.w3.org/2000/svg" xmlns:xlink="http://www.w3.org/1999/xlink" version="1.1" width="1080" height="1080" viewBox="0 0 1080 1080" xml:space="preserve">
<desc>Created with Fabric.js 5.2.4</desc>
<defs>
</defs>
<g transform="matrix(1 0 0 1 540 540)" id="515c473a-37d7-4db9-8501-1db990566970"  >
<rect style="stroke: none; stroke-width: 1; stroke-dasharray: none; stroke-linecap: butt; stroke-dashoffset: 0; stroke-linejoin: miter; stroke-miterlimit: 4; fill: rgb(255,255,255); fill-rule: nonzero; opacity: 1; visibility: hidden;" vector-effect="non-scaling-stroke"  x="-540" y="-540" rx="0" ry="0" width="1080" height="1080" />
</g>
<g transform="matrix(1 0 0 1 540 540)" id="5b827d9c-d1df-4e10-8b72-ec9bed347f20"  >
</g>
<g transform="matrix(0 0 0 0 0 0)"  >
<g style=""   >
</g>
</g>
<g transform="matrix(2.16 0 0 2.16 279.19 620.73)"  >
<path style="stroke: rgb(38,50,56); stroke-width: 1; stroke-dasharray: none; stroke-linecap: round; stroke-dashoffset: 0; stroke-linejoin: round; stroke-miterlimit: 4; fill: rgb(167,146,227); fill-rule: nonzero; opacity: 1;" vector-effect="non-scaling-stroke"  transform=" translate(-242.41, -272.05)" d="M 286.69 241 C 286.69 241 270.43 254.37 252.36 262.32 C 234.29000000000002 270.27 200.68 269.19 191.64000000000001 279.32 C 182.60000000000002 289.45 193.09 296.67 204.29000000000002 299.2 C 215.49000000000004 301.72999999999996 233.20000000000002 301.72999999999996 233.20000000000002 301.72999999999996 C 233.20000000000002 301.72999999999996 255.25000000000003 308.59 265.37 306.42999999999995 L 275.49 304.25999999999993 C 275.49 304.25999999999993 300.43 239.91999999999993 296.09000000000003 237.75999999999993 C 291.75000000000006 235.59999999999994 286.69 241 286.69 241 Z" stroke-linecap="round" />
</g>
<g transform="matrix(2.16 0 0 2.16 436.02 605.08)"  >
<path style="stroke: rgb(38,50,56); stroke-width: 1; stroke-dasharray: none; stroke-linecap: round; stroke-dashoffset: 0; stroke-linejoin: round; stroke-miterlimit: 4; fill: rgb(146,227,169); fill-rule: nonzero; opacity: 1;" vector-effect="non-scaling-stroke"  transform=" translate(-201.86, -280.13)" d="M 215.13 272.42 C 215.13 272.42 207.54 269.89000000000004 195.25 273.51 C 182.96 277.12999999999994 189.47 279.28999999999996 194.89 279.28999999999996 C 197.4253294905346 279.2303928961817 199.96169401931928 279.35069477106475 202.48 279.65 C 202.48 279.65 203.57 290.85999999999996 215.48 288.33" stroke-linecap="round" />
</g>
<g transform="matrix(2.16 0 0 2.16 422.94 618.05)" id="freepik--bear-2--inject-24"  >
<line style="stroke: rgb(38,50,56); stroke-width: 1; stroke-dasharray: none; stroke-linecap: round; stroke-dashoffset: 0; stroke-linejoin: round; stroke-miterlimit: 4; fill: none; fill-rule: nonzero; opacity: 1;" vector-effect="non-scaling-stroke"  x1="-7.034999999999997" y1="-0.3849999999999909" x2="7.034999999999997" y2="0.3849999999999909" />
</g>
<g transform="matrix(2.16 0 0 2.16 431.89 635.33)"  >
<path style="stroke: rgb(38,50,56); stroke-width: 1; stroke-dasharray: none; stroke-linecap: round; stroke-dashoffset: 0; stroke-linejoin: round; stroke-miterlimit: 4; fill: none; fill-rule: nonzero; opacity: 1;" vector-effect="non-scaling-stroke"  transform=" translate(-199.95, -294.13)" d="M 192 293.39 C 192 293.39 203.21 295.19 207.9 294.83" stroke-linecap="round" />
</g>
<g transform="matrix(2.16 0 0 2.16 459.87 684.4)"  >
<path style="stroke: rgb(38,50,56); stroke-width: 1; stroke-dasharray: none; stroke-linecap: round; stroke-dashoffset: 0; stroke-linejoin: round; stroke-miterlimit: 4; fill: rgb(167,146,227); fill-rule: nonzero; opacity: 1;" vector-effect="non-scaling-stroke"  transform=" translate(-326.05, -301.53)" d="M 343.06 150.7 C 343.06 150.7 328.34 136 328.34 138.25 C 328.6048257647601 140.92573535107297 329.07623190340416 143.57697696770236 329.75 146.18 C 329.75 146.18 314.47 142.78 318.15 147.31 C 321.8299999999999 151.84 323.81 154.1 323.81 154.1 L 312.49 150.7 C 312.49 150.7 317.02 135.7 313.62 132.31 C 310.22 128.92000000000002 297.77 128.63 290.98 135.7 C 284.19000000000005 142.76999999999998 285.04 149.29 287.3 151.54999999999998 C 289.56 153.80999999999997 293.53000000000003 155.54999999999998 294.66 156.07999999999998 C 295.79 156.60999999999999 270.6 188.35 274.28000000000003 200.79999999999998 C 277.96000000000004 213.24999999999997 292.40000000000003 225.14 292.40000000000003 225.14 C 292.40000000000003 225.14 267.21000000000004 268.73 257.3 306.65 C 247.39 344.56999999999994 243.15 358.15999999999997 253.06 378.26 C 262.97 398.36 272.58 408.82 272.58 408.82 L 272.87 427.21999999999997 C 272.87 427.21999999999997 242.02 447.88 241.17000000000002 454.10999999999996 C 240.32000000000002 460.3399999999999 248.24 469.38999999999993 274.28000000000003 465.10999999999996 C 300.32000000000005 460.83 313.62 449.83 314.75 447.84999999999997 C 315.88 445.86999999999995 316.45 423.78999999999996 316.45 423.78999999999996 L 341.08 427.78999999999996 C 341.08 427.78999999999996 345.89 453.27 354.94 459.21 C 363.99 465.15 381.55 474.78 395.13 472.78999999999996 C 408.71 470.79999999999995 407.02 461.78999999999996 406.13 458.64 C 405.24 455.49 399.05 439.4 399.05 439.4 L 392.83 411.94 C 392.83 411.94 411 392.41 411 357.88 C 411 323.34999999999997 399.68 307.5 399.68 307.5 C 399.68 307.5 383.27 241.56 379.3 219.76 C 375.33000000000004 197.95999999999998 371.66 168.54 371.66 168.54 C 371.66 168.54 383.83000000000004 160.04 379.87 149.01 C 375.90999999999997 137.98 362.87 132.01 354.4 135.14 C 345.92999999999995 138.26999999999998 346.74 147 347 149.57 C 347.26272176049014 151.41135149559176 347.73581453945786 153.2164856451282 348.41 154.95 Z" stroke-linecap="round" />
</g>
<g transform="matrix(2.16 0 0 2.16 423.81 390.86)"  >
<path style="stroke: none; stroke-width: 1; stroke-dasharray: none; stroke-linecap: butt; stroke-dashoffset: 0; stroke-linejoin: miter; stroke-miterlimit: 4; fill: rgb(38,50,56); fill-rule: nonzero; opacity: 1;" vector-effect="non-scaling-stroke"  transform=" translate(-309.36, -165.63)" d="M 302.31 168 C 301.92871032892424 167.21737599582545 302.15504263613315 166.2743247157883 302.85 165.75 C 304.91 164.21 309.25 161.43 312.61 162.46 L 315.32 163.3 C 315.7982711336394 163.44941326569239 316.19378578567535 163.78939691015964 316.41331600781893 164.23981236593698 C 316.6328462299625 164.69022782171436 316.65696962683523 165.21122569138726 316.48 165.68 L 315.94 167.11 C 315.6082061349845 167.97650141956873 314.6776824597125 168.45468719713907 313.78 168.22000000000003 C 311.63 167.66000000000003 307.83 166.93000000000004 305.92999999999995 168.11 L 304.92999999999995 168.75 C 304.4943600094774 169.01917241259378 303.9650868153128 169.09121267690108 303.47335269969244 168.94826671305793 C 302.981618584072 168.8053207492148 302.57344807401506 168.46076778019193 302.34999999999997 168 Z" stroke-linecap="round" />
</g>
<g transform="matrix(2.16 0 0 2.16 466.15 396.53)"  >
<path style="stroke: none; stroke-width: 1; stroke-dasharray: none; stroke-linecap: butt; stroke-dashoffset: 0; stroke-linejoin: miter; stroke-miterlimit: 4; fill: rgb(38,50,56); fill-rule: nonzero; opacity: 1;" vector-effect="non-scaling-stroke"  transform=" translate(-328.96, -168.25)" d="M 335.08 172.19 C 335.6888297185264 171.56507514949175 335.76853662827403 170.59600693098102 335.27 169.88 C 333.78999999999996 167.78 330.52 163.78 327.01 163.73 L 324.17 163.73 C 323.67146780568703 163.7241510267432 323.192362985904 163.92307220412 322.8445802088327 164.2803056001334 C 322.4967974317615 164.63753899614684 322.31079005518563 165.1218037161169 322.33000000000004 165.61999999999998 L 322.41 167.14999999999998 C 322.4538580152544 168.07525173876851 323.1856569485004 168.81996477083655 324.11 168.87999999999997 C 326.33000000000004 169.00999999999996 330.17 169.49999999999997 331.61 171.20999999999998 L 332.40000000000003 172.12999999999997 C 332.728747585154 172.5209608884828 333.20738783593407 172.75480973325833 333.717841175386 172.77385649965578 C 334.22829451483796 172.79290326605323 334.72303094711293 172.59537444676485 335.08000000000004 172.22999999999996 Z" stroke-linecap="round" />
</g>
<g transform="matrix(2.16 0 0 2.16 423.46 951.67)" id="freepik--bear-2--inject-24"  >
<polygon style="stroke: rgb(38,50,56); stroke-width: 1; stroke-dasharray: none; stroke-linecap: round; stroke-dashoffset: 0; stroke-linejoin: round; stroke-miterlimit: 4; fill: rgb(38,50,56); fill-rule: nonzero; opacity: 1;" vector-effect="non-scaling-stroke"  points="7.25,-1.44 -7.25,-5.74 6.96,5.74 7.25,-1.44 " />
</g>
<g transform="matrix(2.16 0 0 2.16 591.1 932.43)"  >
<path style="stroke: rgb(38,50,56); stroke-width: 1; stroke-dasharray: none; stroke-linecap: round; stroke-dashoffset: 0; stroke-linejoin: round; stroke-miterlimit: 4; fill: none; fill-rule: nonzero; opacity: 1;" vector-effect="non-scaling-stroke"  transform=" translate(-386.81, -416.36)" d="M 392.87 411.93 C 392.87 411.93 384.24 418.53000000000003 380.75 420.78000000000003" stroke-linecap="round" />
</g>
<g transform="matrix(2.16 0 0 2.16 297.43 1011.82)"  >
<path style="stroke: rgb(38,50,56); stroke-width: 1; stroke-dasharray: none; stroke-linecap: round; stroke-dashoffset: 0; stroke-linejoin: round; stroke-miterlimit: 4; fill: none; fill-rule: nonzero; opacity: 1;" vector-effect="non-scaling-stroke"  transform=" translate(-250.86, -453.11)" d="M 246.22 462.11 C 246.22 462.11 244.07 456.19 255.65 444.11" stroke-linecap="round" />
</g>
<g transform="matrix(2.16 0 0 2.16 325.23 1019.96)"  >
<path style="stroke: rgb(38,50,56); stroke-width: 1; stroke-dasharray: none; stroke-linecap: round; stroke-dashoffset: 0; stroke-linejoin: round; stroke-miterlimit: 4; fill: none; fill-rule: nonzero; opacity: 1;" vector-effect="non-scaling-stroke"  transform=" translate(-263.72, -456.88)" d="M 258.34 465.88 C 258.34 465.88 258.07 457.54 269.10999999999996 447.88" stroke-linecap="round" />
</g>
<g transform="matrix(2.16 0 0 2.16 586.61 1033.05)"  >
<path style="stroke: rgb(38,50,56); stroke-width: 1; stroke-dasharray: none; stroke-linecap: round; stroke-dashoffset: 0; stroke-linejoin: round; stroke-miterlimit: 4; fill: none; fill-rule: nonzero; opacity: 1;" vector-effect="non-scaling-stroke"  transform=" translate(-384.73, -462.94)" d="M 392.67 472.88 C 389.7162446571366 464.6820941394182 384.13266762041997 457.6920745241835 376.79 453" stroke-linecap="round" />
</g>
<g transform="matrix(2.16 0 0 2.16 615.39 1024)"  >
<path style="stroke: rgb(38,50,56); stroke-width: 1; stroke-dasharray: none; stroke-linecap: round; stroke-dashoffset: 0; stroke-linejoin: round; stroke-miterlimit: 4; fill: none; fill-rule: nonzero; opacity: 1;" vector-effect="non-scaling-stroke"  transform=" translate(-398.06, -458.75)" d="M 403.44 469.65 C 403.44 469.65 403.44 453.5 392.67 447.84999999999997" stroke-linecap="round" />
</g>
<g transform="matrix(2.16 0 0 2.16 402.93 344.93)"  >
<path style="stroke: rgb(38,50,56); stroke-width: 1; stroke-dasharray: none; stroke-linecap: round; stroke-dashoffset: 0; stroke-linejoin: round; stroke-miterlimit: 4; fill: rgb(255,255,255); fill-rule: nonzero; opacity: 1;" vector-effect="non-scaling-stroke"  transform=" translate(-299.7, -144.36)" d="M 306 153 C 306 153 291.57 152.15 290.72 147.9 C 289.87000000000006 143.65 299.77000000000004 136.02 304.87 135.73000000000002 C 309.96999999999997 135.44000000000003 309.66 149.86 306 153 Z" stroke-linecap="round" />
</g>
<g transform="matrix(2.16 0 0 2.16 539.73 358.23)"  >
<path style="stroke: rgb(38,50,56); stroke-width: 1; stroke-dasharray: none; stroke-linecap: round; stroke-dashoffset: 0; stroke-linejoin: round; stroke-miterlimit: 4; fill: rgb(255,255,255); fill-rule: nonzero; opacity: 1;" vector-effect="non-scaling-stroke"  transform=" translate(-363.03, -150.52)" d="M 358.91 160.61 C 358.91 160.61 351.83000000000004 150.14000000000001 354.09000000000003 144.20000000000002 C 356.35 138.26000000000002 365.70000000000005 137.12 370.79 146.46 C 375.88 155.8 367.68 160.33 364 161.18 C 360.32 162.03 358.91 160.61 358.91 160.61 Z" stroke-linecap="round" />
</g>
<g transform="matrix(2.16 0 0 2.16 441.98 470.33)"  >
<path style="stroke: rgb(38,50,56); stroke-width: 1; stroke-dasharray: none; stroke-linecap: round; stroke-dashoffset: 0; stroke-linejoin: round; stroke-miterlimit: 4; fill: rgb(255,255,255); fill-rule: nonzero; opacity: 1;" vector-effect="non-scaling-stroke"  transform=" translate(-317.77, -202.42)" d="M 292.68 192.88 C 292.68 192.88 288.43 199.67 290.68 204.76 C 292.93 209.85 295.21 215.23 313.32 216.37 C 331.43 217.51000000000002 340.77 209.01 344.17 201.37 C 347.57000000000005 193.73000000000002 344.17 188.37 338.23 188.37 C 332.29 188.37 322.38 189.5 322.38 189.5 L 316.15 189.5 C 316.15 189.5 296.92 186.37 292.68 192.88 Z" stroke-linecap="round" />
</g>
<g transform="matrix(2.16 0 0 2.16 412.71 444.69)"  >
<path style="stroke: rgb(38,50,56); stroke-width: 1; stroke-dasharray: none; stroke-linecap: round; stroke-dashoffset: 0; stroke-linejoin: round; stroke-miterlimit: 4; fill: rgb(38,50,56); fill-rule: nonzero; opacity: 1;" vector-effect="non-scaling-stroke"  transform=" translate(-304.22, -190.55)" d="M 312.77 187.21 C 312.77 187.21 299.46999999999997 181.27 294.38 185.21 C 289.29 189.15 293.81 195.97 298.38 197.10000000000002 C 302.95 198.23000000000005 315.38 192.01000000000002 316.21 189.46000000000004 C 317.03999999999996 186.91000000000005 312.77 187.21 312.77 187.21 Z" stroke-linecap="round" />
</g>
<g transform="matrix(2.16 0 0 2.16 438.51 476.8)"  >
<path style="stroke: rgb(38,50,56); stroke-width: 1; stroke-dasharray: none; stroke-linecap: round; stroke-dashoffset: 0; stroke-linejoin: round; stroke-miterlimit: 4; fill: none; fill-rule: nonzero; opacity: 1;" vector-effect="non-scaling-stroke"  transform=" translate(-316.17, -205.42)" d="M 298.34 197.12 C 298.34 197.12 302 211.55 315 213.54 C 328 215.52999999999997 334 200 334 200" stroke-linecap="round" />
</g>
<g transform="matrix(2.16 0 0 2.16 460.53 421.58)"  >
<path style="stroke: none; stroke-width: 1; stroke-dasharray: none; stroke-linecap: butt; stroke-dashoffset: 0; stroke-linejoin: miter; stroke-miterlimit: 4; fill: rgb(38,50,56); fill-rule: nonzero; opacity: 1;" vector-effect="non-scaling-stroke"  transform=" translate(-326.36, -179.86)" d="M 328.91 179.86 C 328.91 182.36 327.76000000000005 184.38000000000002 326.36 184.38000000000002 C 324.96 184.38000000000002 323.81 182.38000000000002 323.81 179.86 C 323.81 177.34 324.95 175.33 326.36 175.33 C 327.77000000000004 175.33 328.91 177.36 328.91 179.86 Z" stroke-linecap="round" />
</g>
<g transform="matrix(2.16 0 0 2.16 424.46 417.29)" id="freepik--bear-2--inject-24"  >
<ellipse style="stroke: none; stroke-width: 1; stroke-dasharray: none; stroke-linecap: butt; stroke-dashoffset: 0; stroke-linejoin: miter; stroke-miterlimit: 4; fill: rgb(38,50,56); fill-rule: nonzero; opacity: 1;" vector-effect="non-scaling-stroke"  cx="0" cy="0" rx="2.55" ry="4.53" />
</g>
<g transform="matrix(2.16 0 0 2.16 430 731.17)"  >
<path style="stroke: rgb(38,50,56); stroke-width: 1; stroke-dasharray: none; stroke-linecap: round; stroke-dashoffset: 0; stroke-linejoin: round; stroke-miterlimit: 4; fill: rgb(255,255,255); fill-rule: nonzero; opacity: 1;" vector-effect="non-scaling-stroke"  transform=" translate(-312.23, -324.36)" d="M 360.07 324.41 C 360.07 371.95000000000005 338.65999999999997 410.49 312.23 410.49 C 285.80000000000007 410.49 264.39 372 264.39 324.41 C 264.39 276.82000000000005 297 236 312.23 238.32 C 326.33 240.47 360.07 276.86 360.07 324.41 Z" stroke-linecap="round" />
</g>
<g transform="matrix(2.16 0 0 2.16 572.34 678.51)"  >
<path style="stroke: rgb(38,50,56); stroke-width: 1; stroke-dasharray: none; stroke-linecap: round; stroke-dashoffset: 0; stroke-linejoin: round; stroke-miterlimit: 4; fill: rgb(167,146,227); fill-rule: nonzero; opacity: 1;" vector-effect="non-scaling-stroke"  transform=" translate(-378.12, -298.8)" d="M 357.14 253.06 C 357.14 253.06 358.19 296.56 355.4 319.53 C 352.60999999999996 342.49999999999994 362.71 367.21 370.4 373.82 C 378.09 380.43 385.01 374.17 386.4 366.52 C 387.78999999999996 358.86999999999995 387.4 343.89 387.4 343.89 C 387.4 343.89 401.32 317.78999999999996 401.32 294.13 C 401.32 270.47 382.18 233.57 377.65999999999997 227.31 L 373.15 221" stroke-linecap="round" />
</g>
<g transform="matrix(0 0 0 0 0 0)"  >
<g style=""   >
</g>
</g>
<g transform="matrix(0 0 0 0 0 0)"  >
<g style=""   >
</g>
</g>
</svg>